# xmcd CD database file
#
# Track frame offsets:
#	150
#	21532
#	41175
#	61547
#	87000
#	103650
#	129985
#	152652
#	168885
#	191820
#	210070
#
# Disc length: 3153 seconds
#
# Revision: 0
# Processed by: cddbd v1.5.1PL0 Copyright (c) Steve Scherf et al.
# Submitted via: CDex 1.51
#
DISCID=840c4f0b
DTITLE=Ramon Velos - Ramon Velos
DYEAR=1995
DGENRE=Salsa
TTITLE0=Cantando Voy
TTITLE1=Rumorez de la Manana
TTITLE2=Mi Son
TTITLE3=Clasicos
TTITLE4=Tocalo con Limon
TTITLE5=Popurrit Campresino
TTITLE6=Jaleo
TTITLE7=Sonata del Alba
TTITLE8=El Mareo
TTITLE9=Como Es Posible
TTITLE10=El Caballo Y La Montura
EXTD=YEAR: 1995
EXTT0=
EXTT1=
EXTT2=
EXTT3=
EXTT4=
EXTT5=
EXTT6=
EXTT7=
EXTT8=
EXTT9=
EXTT10=
PLAYORDER=
